<svg xmlns="http://www.w3.org/2000/svg" viewBox="0 0 24 24">
  <path d="m4 20 1.35-4.15a2.4 2.4 0 0 1 .57-.94l8.62-8.62 4.17 4.17-8.62 8.62a2.4 2.4 0 0 1-.94.57L5 21Z"
        fill="#e2e8f0" stroke="#475569" stroke-width="1.15"
        stroke-linecap="round" stroke-linejoin="round"/>
  <path d="m6 18.94-1-1 1-2.92 3.98 3.98Z" fill="#94a3b8"/>
  <path d="m4 20 1-2.06L6.06 19 5 21Z" fill="#334155"/>
  <path d="m7.82 16.98 8.7-8.7" fill="none" stroke="#94a3b8"
        stroke-width="1.05" stroke-linecap="round"/>
  <path d="m13.62 7.21 4.17 4.17" fill="none" stroke="#475569"
        stroke-width="1.15" stroke-linecap="round"/>
  <path d="m14.54 6.29 1.63-1.63a2.25 2.25 0 0 1 3.18 0 2.25 2.25 0 0 1 0 3.18l-1.64 1.63Z"
        fill="#f8fafc" stroke="#475569" stroke-width="1.15"
        stroke-linejoin="round"/>
</svg>
